<?xml version="1.0" encoding="utf-8"?>
<!-- Generator: Adobe Illustrator 26.0.0, SVG Export Plug-In . SVG Version: 6.00 Build 0)  -->
<svg version="1.1" id="Layer_1" xmlns="http://www.w3.org/2000/svg" xmlns:xlink="http://www.w3.org/1999/xlink" x="0px" y="0px"
	 viewBox="0 0 420 512" style="enable-background:new 0 0 420 512;" xml:space="preserve">
<style type="text/css">
	.st0{fill:#EE1D52;}
	.st1{fill:#69C9D0;}
</style>
<path class="st0" d="M16.3,424.6l1.6,4.4C17.6,428.5,17.1,427,16.3,424.6z M77.9,325c2.7-23.6,12-36.9,29.5-50.4
	c25-18.4,56.3-8,56.3-8v-61.6c7.6-0.2,15.2,0.3,22.7,1.4v79.3c0,0-31.3-10.4-56.3,8c-17.5,13.6-26.8,26.8-29.5,50.4
	c-0.1,12.8,2.2,29.6,12.8,44.1c-2.6-1.4-5.3-3-8-4.8C82,366.9,77.8,342.3,77.9,325L77.9,325z M315.6,91
	c-17.2-19.7-23.7-39.6-26.1-53.5h21.7c0,0-4.3,36.6,27.2,72.6l0.4,0.5C330.3,105,322.5,98.4,315.6,91z M420,146.8v77.7
	c0,0-27.7-1.1-48.1-6.6c-28.6-7.6-46.9-19.2-46.9-19.2s-12.7-8.3-13.7-8.9v160.5c0,8.9-2.3,31.3-9.5,49.9
	c-9.3,24.3-23.7,40.3-26.4,43.6c0,0-17.5,21.6-48.4,36.1c-27.9,13.1-52.3,12.8-59.6,13.1c0,0-42.3,1.7-80.3-24.1
	c-8.2-5.7-15.9-12.1-22.9-19.2l0.2,0.1c38.1,25.8,80.3,24.1,80.3,24.1c7.3-0.3,31.8,0,59.6-13.1c30.9-14.5,48.4-36.1,48.4-36.1
	c2.6-3.3,17.1-19.2,26.4-43.6c7.1-18.6,9.5-40.9,9.5-49.9V170.8c1,0.6,13.7,8.9,13.7,8.9s18.4,11.7,46.9,19.2
	c20.5,5.4,48.1,6.6,48.1,6.6v-60.9C406.7,146.8,414.8,147.4,420,146.8L420,146.8z"/>
<path d="M397.3,144.6v60.9c0,0-27.6-1.1-48.1-6.6c-28.6-7.6-46.9-19.2-46.9-19.2s-12.7-8.3-13.7-8.9v160.5c0,8.9-2.3,31.3-9.5,49.9
	c-9.3,24.4-23.7,40.3-26.4,43.6c0,0-17.5,21.6-48.4,36.1c-27.9,13.1-52.3,12.8-59.6,13.1c0,0-42.3,1.7-80.3-24.1l-0.2-0.1
	c-4-4.1-7.8-8.3-11.3-12.8c-12.1-15.4-19.6-33.7-21.5-38.9c0,0,0,0,0-0.1c-3-9.1-9.3-30.8-8.5-51.9c1.5-37.2,14.1-60,17.4-65.7
	c8.8-15.6,20.2-29.5,33.7-41.2c12-10.1,25.5-18.1,40.1-23.7c15.8-6.6,32.7-10.2,49.8-10.4v61.6c0,0-31.3-10.4-56.3,8
	c-17.5,13.6-26.8,26.8-29.5,50.4c-0.1,17.4,4.1,42,27.5,58.4c2.7,1.8,5.4,3.4,8,4.8c4.1,5.5,9.1,10.4,14.7,14.3
	c22.8,15.1,42,16.1,66.5,6.3c16.3-6.6,28.6-21.3,34.3-37.7c3.6-10.2,3.5-20.5,3.5-31.1V37.5h57c2.4,14,8.9,33.9,26.1,53.5
	c6.9,7.4,14.7,14,23.2,19.6c2.5,2.7,15.3,16.1,31.8,24.3C379,139.1,388,142.4,397.3,144.6z"/>
<path class="st1" d="M8.6,379.1L8.6,379.1l1.4,4C9.8,382.7,9.3,381.3,8.6,379.1L8.6,379.1z"/>
<path class="st1" d="M114,215.4C99.4,221,85.8,229,73.9,239.1c-13.6,11.7-25,25.7-33.7,41.3c-3.3,5.7-15.8,28.5-17.4,65.7
	c-0.9,21.1,5.5,42.8,8.5,51.9c0,0,0,0,0,0.1c1.9,5.2,9.3,23.4,21.5,38.9c3.5,4.5,7.3,8.8,11.3,12.8C51.2,441,39.7,430.2,30,417.9
	c-12-15.3-19.5-33.4-21.4-38.7c0,0,0-0.1,0-0.1V379c-3-9-9.4-30.8-8.5-51.9c1.5-37.2,14.1-60,17.4-65.7
	c8.8-15.6,20.2-29.6,33.7-41.3c12-10.1,25.5-18.1,40.1-23.7c9.1-3.8,18.6-6.6,28.3-8.3c14.6-2.6,29.5-2.8,44.2-0.7v17.6
	C146.7,205.2,129.8,208.8,114,215.4z"/>
<path class="st1" d="M289.5,37.5h-57V340c0,10.6,0,20.9-3.5,31.1c-5.8,16.4-18,31.1-34.3,37.7c-24.5,9.8-43.6,8.7-66.5-6.3
	c-5.7-3.9-10.7-8.7-14.8-14.2c19.5,10.4,36.9,10.2,58.4,1.5c16.3-6.6,28.6-21.3,34.3-37.7c3.6-10.2,3.5-20.5,3.5-31.1V18.3h78.7
	C288.4,18.3,287.6,25.9,289.5,37.5z M397.3,127.7v16.8c-9.2-2.2-18.2-5.5-26.7-9.7c-16.5-8.2-29.3-21.6-31.8-24.3
	c2.9,1.9,5.9,3.6,9,5.2C367.8,125.8,387.5,128.8,397.3,127.7L397.3,127.7z"/>
</svg>
